Source: THC (this is a TRU 720p not upscaled)
Audio: MiNiSTRY...THX

Format                           : AVI
Format/Info                      : Audio Video Interleave
Format profile                   : OpenDML
File size                        : 2.34 GiB
Duration                         : 2h 4mn
Overall bit rate                 : 2 700 Kbps
Writing library                  : VirtualDub build 35390/release

Video
ID                               : 0
Format                           : MPEG-4 Visual
Format profile                   : Advanced Simple@L5
Format settings, BVOP            : Yes
Format settings, QPel            : No
Format settings, GMC             : No warppoints
Format settings, Matrix          : Default (H.263)
Muxing mode                      : Packed bitstream
Codec ID                         : XVID
Codec ID/Hint                    : XviD
Duration                         : 2h 4mn
Bit rate                         : 2 497 Kbps
Width                            : 1 280 pixels
Height                           : 528 pixels
Display aspect ratio             : 2.40:1
Frame rate                       : 24.000 fps
Color space                      : YUV
Chroma subsampling               : 4:2:0
Bit depth                        : 8 bits
Scan type                        : Progressive
Bits/(Pixel*Frame)               : 0.154
Stream size                      : 2.17 GiB (92%)
Writing library                  : XviD 1.2.1 (UTC 2008-12-04)

Audio
ID                               : 1
Format                           : MPEG Audio
Format version                   : Version 1
Format profile                   : Layer 3
Mode                             : Joint stereo
Mode extension                   : MS Stereo
Codec ID                         : 55
Codec ID/Hint                    : MP3
Duration                         : 2h 4mn
Bit rate mode                    : Constant
Bit rate                         : 192 Kbps
Channel(s)                       : 2 channels
Sampling rate                    : 48.0 KHz
Stream size                      : 171 MiB (7%)
Alignment                        : Split accross interleaves
Interleave, duration             : 42 ms (1.00 video frame)
Interleave, preload duration     : 500 ms
Writing library                  : LAME3.98.2

Workdone:
The reason for V2 is because V1 was dark and blurry and could be done better. So decided to give source file another try and cut video up in parts for light and dark scenes, brighten and sharpen them up. After all that was done, had to resync MiNiSTRY audio all over again cause we had to find the cut points in the audio so it will match up with video. Spent all day redoing this, so We hope you all enjoy it

ADD: this is a CAM and will still have that CAM look, SO dont expect DVD quality till DVD comes out

Screens:
 
http://i.imgur.com/OGbOxFn.png 
http://i.imgur.com/tfiD7HF.png 
http://i.imgur.com/lbXwZTB.png 
http://i.imgur.com/s2zt8eH.png 
http://i.imgur.com/gydAnpR.png 
http://i.imgur.com/yiU4mxU.png
